<?xml version="1.0" encoding="iso-8859-1"?>
<!-- Generator: Adobe Illustrator 17.1.0, SVG Export Plug-In . SVG Version: 6.00 Build 0)  -->
<!DOCTYPE svg PUBLIC "-//W3C//DTD SVG 1.1//EN" "http://www.w3.org/Graphics/SVG/1.1/DTD/svg11.dtd">
<svg version="1.1" id="Livello_1" xmlns="http://www.w3.org/2000/svg" xmlns:xlink="http://www.w3.org/1999/xlink" x="0px" y="0px"
	 width="32.19609px" height="9.48082px" viewBox="0 0 32.19609 9.48082" enable-background="new 0 0 32.19609 9.48082"
	 xml:space="preserve">
<g>
	<g>
		<path fill="#E95B34" d="M5.46574,2.71734c1.01395,0.55104,1.7038,1.62579,1.7038,2.85865c0,0.61552-0.175,1.18947-0.47338,1.68063
			l0.03992,0.01327l0.31735-0.06402c0.25494-0.48831,0.40122-1.04194,0.40122-1.62988c0-1.29221-0.69888-2.42145-1.73636-3.03847
			C5.63784,2.6007,5.55189,2.66057,5.46574,2.71734z"/>
		<path fill="#F59F23" d="M5.46574,2.71734C5.4082,2.75523,5.35097,2.79219,5.29602,2.82713
			C5.25953,2.85035,5.22469,2.8728,5.18986,2.8953C6.19261,3.37293,6.8891,4.39336,6.8891,5.57598
			c0,0.59152-0.17573,1.14183-0.47494,1.60531c0.07154,0.01187,0.14235,0.02893,0.2116,0.05194l0.0704,0.02338
			C6.99454,6.76545,7.16954,6.1915,7.16954,5.57598C7.16954,4.34312,6.47968,3.26837,5.46574,2.71734z"/>
		<path fill="#FFDB05" d="M5.18986,2.8953C5.17804,2.90292,5.16528,2.9109,5.15378,2.91847
			c-0.07247,0.04759-0.1494,0.0958-0.22912,0.14483C5.92098,3.4638,6.62701,4.4382,6.62701,5.57598
			c0,0.59484-0.19501,1.1437-0.52128,1.59101c0.02696-0.00156,0.05381-0.00482,0.08076-0.00482
			c0.07651,0,0.15261,0.00669,0.22767,0.01913C6.71337,6.71781,6.8891,6.1675,6.8891,5.57598
			C6.8891,4.39336,6.19261,3.37293,5.18986,2.8953z"/>
		<path fill="#70B54A" d="M4.92465,3.0633C4.91429,3.06973,4.90537,3.07579,4.89479,3.08222
			c0.08792,0.04608,0.16049,0.11187,0.18392,0.21362c0.0056,0.02431,0.0112,0.06765-0.00041,0.11902
			c0.76938,0.4146,1.29366,1.22762,1.29366,2.16112c0,0.56669-0.19501,1.08761-0.51879,1.5034
			C5.85245,7.11655,5.85099,7.15424,5.84902,7.19265L6.0204,7.17207C6.0486,7.1687,6.07721,7.16865,6.10573,7.16699
			c0.32627-0.44731,0.52128-0.99617,0.52128-1.59101C6.62701,4.4382,5.92098,3.4638,4.92465,3.0633z"/>
		<path fill="#58BFD1" d="M5.0783,3.41487C5.06648,3.46712,5.03683,3.52766,4.97069,3.5852
			c-0.0142,0.01234-0.02924,0.02193-0.04427,0.03115c0.71018,0.36686,1.19776,1.10669,1.19776,1.95962
			c0,0.1156-0.01161,0.22829-0.02882,0.33912C6.1135,5.93745,6.12874,5.96103,6.13911,5.98566
			c0.04168,0.06988,0.07879,0.16515,0.0537,0.26017c-0.00228,0.00866-0.00622,0.02105-0.0114,0.03644
			C6.17343,6.30591,6.16254,6.338,6.15725,6.37289C6.14098,6.52379,5.99241,6.62223,5.8963,6.65058
			C5.87183,6.65789,5.85535,6.66385,5.84467,6.6681c0.00498,0.093,0.01171,0.24374,0.0085,0.41128
			c0.32378-0.41579,0.51879-0.93671,0.51879-1.5034C6.37196,4.64249,5.84768,3.82946,5.0783,3.41487z"/>
		<path fill="#715BA2" d="M4.92642,3.61636C4.86691,3.6528,4.80346,3.66825,4.75421,3.67934
			C4.73907,3.68276,4.72404,3.6853,4.71253,3.68961C4.66992,3.70827,4.62441,3.73942,4.57755,3.77954
			c0.73402,0.26453,1.2609,0.9633,1.2609,1.7841c0,0.05251-0.00373,0.10414-0.00798,0.15562
			C5.84913,5.743,5.86561,5.76887,5.87681,5.79857c0.0987,0.01197,0.17127,0.05853,0.21855,0.11653
			c0.01721-0.11083,0.02882-0.22352,0.02882-0.33912C6.12418,4.72304,5.63659,3.98321,4.92642,3.61636z"/>
		<path fill="#CBC8E4" d="M4.57755,3.77954C4.57288,3.78354,4.56842,3.78623,4.56365,3.79048
			C4.5056,3.84227,4.45459,3.90903,4.40752,3.97959c0.68467,0.2045,1.18512,0.83687,1.18512,1.58406
			c0,0.0113-0.00145,0.02224-0.00166,0.03349C5.61835,5.60439,5.648,5.61206,5.68252,5.62056
			c0.06003,0.01472,0.11031,0.05049,0.14795,0.0987c0.00425-0.05148,0.00798-0.10311,0.00798-0.15562
			C5.83845,4.74285,5.31157,4.04407,4.57755,3.77954z"/>
		<path fill="#2D2378" d="M4.02465,2.11068C3.98463,2.12219,3.94647,2.12696,3.90957,2.12696
			c-0.17086,0-0.3158-0.10124-0.49515-0.10124c-0.02675,0-0.05433,0.00228-0.08284,0.00746
			c-0.12939,0.02353-0.31683,0.0634-0.45503,0.09346c-0.11995,0.02618-0.23514,0.07034-0.34192,0.1311
			c0,0-0.65793,0.36566-0.67337,0.38624L1.54794,3.03697C1.54638,3.03857,1.54483,3.04013,1.54327,3.04169L1.25526,3.27242
			c0.0141-0.00404,0.02685-0.01021,0.04126-0.01353c0.01545-0.00327,0.1551-0.03193,0.2934-0.03193
			c0.01731,0,0.03432,0.00041,0.05111,0.0014c0.3017,0.01721,0.54077,0.12866,0.69152,0.32228
			c0.12524,0.1608,0.14649,0.25623,0.1468,0.40947c0,0.04116-0.00425,0.07402-0.00778,0.09896l0.04437,0.0705l0.01192,0.01426
			C2.55421,4.1745,2.58687,4.2127,2.61663,4.27465C2.65913,4.36459,2.64338,4.47619,2.58656,4.5553
			c0.00715,0.06703-0.01431,0.12306-0.06314,0.1974l0.00166,0.02773L2.52633,4.8007
			c0.00041,0.00508,0.00052,0.01021,0.00052,0.01534C2.52622,4.92614,2.48662,5.01572,2.41736,5.0758
			c0.03369,0.01638,0.0706,0.03473,0.10782,0.05344c0.01192-0.01166,0.02519-0.02208,0.0395-0.03053l0.13322-0.07885
			c0.02156-0.03312,0.05795-0.09517,0.0903-0.18045c0.07123-0.18807,0.21585-0.40019,0.23213-0.42377
			c0.0142-0.02058,0.03193-0.03852,0.05246-0.05293c0.2199-0.1551,0.44083-0.18817,0.55954-0.20595
			c0.01669-0.00254,0.03058-0.0043,0.03919-0.00622c0.02322-0.00617,0.048-0.00933,0.07371-0.00933
			c0.04997,0,0.13944,0.01379,0.31123,0.09564c0.01534-0.09025,0.04634-0.16827,0.09891-0.25603
			C4.22992,3.85642,4.31349,3.729,4.42235,3.63196C4.4831,3.57769,4.55235,3.52798,4.62742,3.49511
			C4.68641,3.4693,4.78241,3.46753,4.83135,3.42497c0.17397-0.15126-0.24664-0.21886-0.32647-0.2511
			c-0.15562-0.06272-0.03318-0.08755,0.0819-0.15494c0.1523-0.08916,0.30304-0.18128,0.45057-0.27801
			C5.242,2.60677,5.49207,2.46126,5.67516,2.29843c0.14525-0.12918,0.35384-0.63698,0.29599-0.63698h-0.0001
			C5.93072,1.66166,5.7608,1.91701,5.71995,1.95454C5.62073,2.04567,5.52846,2.10461,5.41473,2.1763
			c-0.08595,0.05407-0.1608,0.11534-0.20352,0.11534c-0.03535,0-0.04862-0.04214-0.02778-0.16541
			c0.03649-0.21632,0.05453-0.45104-0.05692-0.64999c-0.16515-0.2948-0.44788-0.3582-0.75984-0.3582
			c-0.23565,0-0.488,0.03623-0.71878,0.03623c-0.15199,0-0.29454-0.01571-0.41698-0.06775
			C2.98312,0.98113,2.82419,0.72588,2.85726,0.45534C2.8668,0.37686,3.0164,0.11098,2.95731,0.06993
			C2.95264,0.06671,2.94704,0.06537,2.94092,0.06537c-0.0255,0-0.06106,0.02245-0.0847,0.02245
			c-0.00135,0-0.0027-0.0001-0.00394-0.00026C2.80065,0.08107,2.77712,0.03965,2.7343,0.01674C2.71273,0.00523,2.69335,0,2.67583,0
			C2.53161,0,2.51617,0.35504,2.51285,0.47307C2.49709,1.02748,2.9149,1.43845,3.43494,1.5485
			c0.11207,0.02369,0.23317,0.03924,0.35167,0.03924c0.05287,0,0.10513-0.00306,0.15593-0.0099
			c0.07123-0.00959,0.1353-0.02721,0.19626-0.02721c0.05941,0,0.1157,0.01669,0.17283,0.07382
			C4.50798,1.85102,4.1983,2.06071,4.02465,2.11068z"/>
		<path fill="#2D2378" d="M0.69801,4.79992C0.70827,4.74114,0.71988,4.63787,0.7062,4.55105
			C0.67209,4.33239,0.66265,4.16164,0.66203,4.14961C0.65716,3.99467,0.68681,3.85108,0.74238,3.72465
			C0.45043,4.16527,0.28662,4.54607,0.22151,5.04838c0.00218-0.01711,0.00498-0.03395,0.00746-0.05096
			C0.37765,4.93029,0.54353,4.86135,0.69801,4.79992z"/>
		<path fill="#2D2378" d="M0.82522,6.93019C0.867,6.83124,0.96342,6.76727,1.07093,6.76727
			c0.07672,0,0.14981,0.03323,0.2004,0.09103c0.10388,0.11886,0.18091,0.2622,0.2228,0.41455l0.02944,0.10705
			c0.00435,0.01597,0.00684,0.03245,0.00746,0.04899l0.01182,0.34457c0.01845,0.0041,0.0395,0.00855,0.06293,0.01327
			C1.53612,6.88266,1.91951,6.06067,2.04838,5.78536l0.01617-0.03468c0.00311-0.00679,0.00664-0.01343,0.01047-0.01985
			c0.11301-0.18843,0.22207-0.33544,0.3045-0.43694C2.29109,5.25023,2.21426,5.21374,2.21426,5.21374L1.87234,5.09612
			C1.87276,5.08876,1.80205,4.89556,1.80288,4.8881L2.1223,4.94548c0.01389,0.00109,0.02903,0.00207,0.04448,0.00207
			c0.07019,0,0.14701-0.01965,0.14774-0.13281L2.31317,4.79448L2.30705,4.69122c0,0,0.0704-0.09543,0.06832-0.11342
			C2.36905,4.55182,2.31234,4.49081,2.31234,4.49081S2.31203,4.48195,2.31431,4.47889
			C2.32706,4.46121,2.36884,4.4608,2.40326,4.44203C2.424,4.43073,2.4354,4.38807,2.42462,4.36521
			c-0.0227-0.04722-0.04893-0.07102-0.08076-0.11047l-0.0676-0.1073C2.23624,4.0872,2.26714,4.04765,2.26703,3.96035
			C2.26683,3.8545,2.26081,3.80406,2.16502,3.6811C2.04486,3.52673,1.85586,3.45328,1.62891,3.44032
			C1.61616,3.43959,1.60309,3.43928,1.58993,3.43928c-0.12016,0-0.24944,0.02732-0.24944,0.02732
			C1.02137,3.54057,0.86472,3.8389,0.87426,4.14298c0,0,0.00892,0.16474,0.04178,0.37531
			c0.02747,0.17516-0.01814,0.36463-0.01814,0.36463C0.88431,4.95269,0.85207,4.96715,0.85207,4.96715
			s-0.38287,0.15069-0.6515,0.27718C0.20036,5.24692,0.20036,5.24961,0.20016,5.25226
			C0.19715,5.2931,0.19591,5.33722,0.19404,5.37988c-0.00197,0.04909-0.00715,0.0973-0.00715,0.14686
			c0,0.01115,0.00156,0.02188,0.00166,0.03297C0.18834,5.5778,0.18689,5.5935,0.18689,5.61186
			c0,0.61345,0.17314,1.20041,0.47276,1.71241L0.82522,6.93019z"/>
		<path fill="#2D2378" d="M1.82133,7.82377C1.97425,7.84617,2.16191,7.8653,2.36356,7.8653
			c0.04707,0,0.09217-0.00275,0.13778-0.00482c0.00384-0.01674,0.00591-0.03152,0.01099-0.04961
			C2.5142,7.80408,2.51648,7.79739,2.51907,7.79086l0.00695-0.01835C2.55017,7.70792,2.5906,7.59983,2.71864,7.51026
			c0.00695-0.00482,0.01317-0.00918,0.01877-0.01317c0.00529-0.24488,0.0254-0.38116,0.0367-0.45778
			c0.00156-0.01063,0.00301-0.0198,0.00415-0.02794L2.77525,7.00401C2.675,6.76385,2.58438,6.49066,2.67178,6.28538
			c0.03017-0.07102,0.09663-0.12006,0.17335-0.12804C2.85249,6.15657,2.85985,6.1562,2.86711,6.1562
			c0.06894,0,0.13416,0.03354,0.17407,0.09082c0.08833,0.12643,0.21844,0.26536,0.25774,0.28345
			c0.01825,0,0.06573-0.01441,0.10388-0.02607c0.0535-0.01628,0.12016-0.0366,0.19709-0.04976
			c0.05578-0.00959,0.11259-0.0142,0.17376-0.0142c0.05744,0,0.11332,0.00415,0.17086,0.00871
			c0.04956,0.00389,0.10057,0.00809,0.15593,0.00809c0.09631,0,0.2342-0.01192,0.44663-0.10492
			c0.01047-0.00461,0.01503-0.02136,0.0169-0.03323C4.5565,6.29725,4.54354,6.27538,4.53317,6.25413L4.28612,6.08021
			C4.22515,6.04257,4.14989,5.65115,4.14989,5.65115c0.14131-0.03167,0.2623-0.01623,0.33736-0.04152
			c0.00881-0.00295,0.13602-0.08128,0.15914-0.11793C4.6553,5.47759,4.6748,5.40067,4.68433,5.35168
			c0.00861-0.0438,0.04987-0.10253,0.05868-0.13732C4.73524,5.13894,4.67832,5.11494,4.64535,5.01691
			c-0.0057-0.01747-0.0509-0.0338-0.07123-0.03629C4.55381,4.97824,4.54261,4.97767,4.54416,4.95875
			c0.00238-0.0282-0.00259-0.0578-0.00788-0.06682C4.5311,4.88307,4.50197,4.82931,4.4887,4.82532
			C4.47532,4.82107,4.41841,4.80417,4.34739,4.77607c-0.0113-0.00446-0.01514-0.08481-0.00767-0.11192
			c0.02001-0.07237-0.17044-0.14753-0.17044-0.14753c-0.0168-0.00798-0.14442-0.06034-0.15396-0.0649
			C4.00661,4.44768,3.82859,4.35354,3.74524,4.35354c-0.00705,0-0.01348,0.00067-0.01908,0.00218
			c-0.0706,0.01876-0.30647,0.02213-0.53103,0.1805c0,0-0.14421,0.20906-0.20839,0.37842
			C2.92268,5.08368,2.84492,5.17963,2.84492,5.17963l-0.1721,0.10181c0,0-0.19947,0.19797-0.41564,0.55855
			C2.14625,6.07928,1.73176,6.91485,1.82133,7.82377z"/>
		<path fill="#2D2378" d="M5.28876,5.72201c0,0-0.02758-0.08035-0.07485-0.13125c-0.0338-0.03639-0.08729-0.04738-0.11705-0.04738
			c-0.01192,0-0.02001,0.00176-0.02156,0.00435C5.0699,5.55691,5.0698,5.72626,5.0698,5.72626L5.02594,5.7639
			C4.97981,5.73792,4.84109,5.67313,4.77567,5.64431c-0.04313-0.01902-0.0875-0.03919-0.124-0.03919
			c-0.01877,0-0.03546,0.00534-0.04883,0.01887C4.57506,5.65213,4.59922,5.72424,4.59382,5.82154
			c0.01244,0.18128,0.1327,0.28366,0.18247,0.46597C4.78044,6.3027,4.78459,6.48009,4.63218,6.5468
			C4.40441,6.64654,4.23988,6.66955,4.10043,6.66955c-0.11923,0-0.22021-0.0168-0.32679-0.0168
			c-0.04437,0-0.08978,0.0029-0.13789,0.01115C3.49455,6.68806,3.38994,6.7428,3.29892,6.7428
			c-0.01669,0-0.03297-0.00181-0.04893-0.00606c-0.15448-0.041-0.38287-0.3682-0.38287-0.3682
			c-0.06967,0.1637,0.08128,0.49676,0.11404,0.57778C3.0192,7.01018,2.95202,7.06902,2.9486,7.58076
			C2.92071,7.62337,2.95119,7.60663,2.84046,7.68417c-0.0678,0.04743-0.09103,0.09834-0.11021,0.14862
			c0.16557-0.03857,0.35758-0.11238,0.50023-0.17392L3.12692,7.31825C3.1009,7.24423,3.11085,7.16243,3.1545,7.09659
			c0.04676-0.07045,0.12493-0.11249,0.20911-0.11249c0.02685,0,0.0535,0.0043,0.07921,0.0128l0.31611,0.10476
			c0.07382,0.02447,0.14452,0.05801,0.21046,0.09963L4.2576,7.38383l1.37826-0.16557C5.65443,6.9078,5.6255,6.60813,5.62882,6.58677
			c0.00995-0.06231,0.03141-0.05018,0.0704-0.08004c0.04334-0.03323,0.124-0.05578,0.141-0.06101
			c0.0451-0.01327,0.10419-0.06371,0.10616-0.09777C5.95664,6.27305,5.98173,6.21343,5.98754,6.1915
			C5.99728,6.1546,5.94658,6.07824,5.94658,6.07824S5.93435,6.0094,5.82881,6.0079C5.81232,6.00769,5.79874,6.00764,5.78755,6.00764
			c-0.00435,0-0.00819,0-0.01182,0c-0.04717,0-0.04199-0.00078-0.05609-0.02255C5.69984,5.95461,5.6904,5.92915,5.68397,5.89484
			C5.67786,5.86156,5.66023,5.83372,5.63193,5.82677C5.34475,5.75602,5.28876,5.72201,5.28876,5.72201z"/>
		<path fill="#2D2378" d="M4.20784,7.60367L3.85576,7.38072c-0.05122-0.0324-0.10616-0.05842-0.1637-0.0775l-0.316-0.10476
			c-0.00425-0.0014-0.0084-0.00202-0.01244-0.00202c-0.02623,0-0.04665,0.02732-0.03546,0.05391l0.15945,0.52413
			c0,0-0.54357,0.26992-0.89462,0.29511c-0.07755,0.0056-0.15448,0.00803-0.22943,0.00803
			c-0.52729,0-0.96543-0.12063-0.96543-0.12063C1.36246,7.95186,1.33551,7.9219,1.33426,7.88593L1.31882,7.43618L1.28937,7.32914
			C1.25578,7.2068,1.19503,7.09364,1.11147,6.9981C1.10048,6.98556,1.08565,6.9796,1.07093,6.9796
			c-0.02063,0-0.04095,0.01166-0.05008,0.03318L0.70464,7.76535L0.09233,8.21717C0.04713,8.25372,0.01665,8.30545,0.0068,8.36278
			l-0.00684,0.0395l0.04292,0.00772C0.1168,8.42328,0.19145,8.42986,0.26599,8.42986c0.1185,0,0.2368-0.01664,0.35136-0.04982
			l0.50148-0.12586c0.02053-0.00482,0.04137-0.00726,0.06221-0.00726c0.03463,0,0.06915,0.00669,0.10171,0.01985l1.10539,0.55311
			c0.23721,0.09196,0.8743,0.26572,1.46027,0.26572c0.01742,0,0.03484-0.00016,0.05215-0.00047
			C4.424,9.0756,5.10111,8.87613,5.10111,8.87613l-0.11975,0.5471C4.97452,9.45438,4.99909,9.48082,5.0275,9.48082
			c0.00674,0,0.01358-0.00145,0.02032-0.00461l0.00249-0.00114c0.06832-0.03219,0.12659-0.08144,0.1692-0.14318
			c0.15396-0.22285,0.52792-0.76398,0.52792-0.76398l1.07066-0.74004c0.06449-0.04764,0.46229-0.38433,0.46229-0.38433
			C7.30038,7.41866,7.28172,7.3832,7.25186,7.3832c-0.00238,0-0.00477,0.00021-0.00726,0.00067l-0.4766,0.09616
			c-0.0112,0.00213-0.0225,0.00316-0.0338,0.00316c-0.01949,0-0.03898-0.00311-0.05764-0.00933L6.55879,7.43473
			C6.43842,7.39471,6.31266,7.3745,6.18649,7.3745c-0.04697,0-0.09393,0.0028-0.14079,0.0084L4.20784,7.60367z"/>
	</g>
	<g>
		<path fill="#2D2378" d="M9.92075,8.65927c-0.38955,0-0.70693-0.12754-0.95234-0.38262
			C8.7231,8.02157,8.60034,7.6495,8.60034,7.16005c0-0.48926,0.12402-0.86016,0.37227-1.1125
			C9.22066,5.7954,9.54087,5.66923,9.93316,5.66923c0.39238,0,0.70918,0.12402,0.95029,0.37207
			c0.24121,0.24824,0.36182,0.62383,0.36182,1.12695c0,0.50332-0.12344,0.87773-0.37012,1.12305
			C10.62837,8.53661,10.31021,8.65927,9.92075,8.65927z M9.9228,6.46767c-0.13301,0-0.24473,0.06113-0.33477,0.18301
			C9.498,6.77255,9.45288,6.94384,9.45288,7.16435c0,0.22031,0.04297,0.38945,0.12891,0.50723s0.19893,0.17676,0.33896,0.17676
			c0.13994,0,0.25361-0.05957,0.34102-0.17891c0.08731-0.11914,0.13096-0.28945,0.13096-0.51133
			c0-0.22188-0.04512-0.39238-0.13516-0.51172C10.16753,6.52724,10.05591,6.46767,9.9228,6.46767z"/>
		<path fill="#2D2378" d="M13.21636,5.70653c0.04717,0,0.0707,0.12266,0.0707,0.36816c0,0.24531-0.02354,0.36816-0.0707,0.36816
			h-0.76094v0.47383h0.50732c0.04717,0,0.0707,0.10762,0.0707,0.32227c0,0.21504-0.02217,0.32246-0.0665,0.32246h-0.51152v1.00215
			c0,0.03887-0.05195,0.06445-0.15596,0.07695s-0.19072,0.01875-0.25986,0.01875l-0.19551-0.0082
			c-0.13594-0.0168-0.20371-0.04453-0.20371-0.0832V5.81474c0-0.04414,0.00889-0.07344,0.02695-0.0873
			c0.01797-0.01387,0.04502-0.0209,0.08105-0.0209H13.21636z"/>
		<path fill="#2D2378" d="M16.44331,8.62607c-0.24111,0-0.37148-0.03887-0.39082-0.11641l-0.1373-0.53672h-0.66113l-0.1207,0.51582
			c-0.0166,0.08594-0.14961,0.12891-0.39922,0.12891c-0.13301,0-0.23145-0.00762-0.29521-0.02285
			c-0.06377-0.01523-0.09561-0.02695-0.09561-0.03535l0.73604-2.81543c0-0.02227,0.18994-0.0332,0.56973-0.0332
			s0.56973,0.01094,0.56973,0.0332l0.71943,2.81953c0,0.01953-0.06377,0.03477-0.19121,0.0457
			C16.61939,8.6204,16.51822,8.62607,16.44331,8.62607z M15.35796,7.44482h0.43672l-0.18711-0.86074h-0.025L15.35796,7.44482z"/>
		<path fill="#2D2378" d="M19.49155,8.52606c0,0.0582-0.13027,0.0875-0.39082,0.0875c-0.26074,0-0.40215-0.0209-0.42422-0.0625
			L17.98218,7.2536v1.29336c0,0.0498-0.12832,0.0748-0.38477,0.0748s-0.38477-0.025-0.38477-0.0748V5.76474
			c0-0.04141,0.10957-0.06211,0.32861-0.06211c0.08584,0,0.18643,0.00742,0.30146,0.02266
			c0.11504,0.01523,0.18516,0.04375,0.20996,0.08535l0.66543,1.28086V5.78564c0-0.05254,0.12891-0.0791,0.38672-0.0791
			s0.38672,0.02656,0.38672,0.0791V8.52606z"/>
		<path fill="#2D2378" d="M20.26519,7.90243V6.42196h-0.29531c-0.04727,0-0.08047-0.05957-0.09981-0.17891
			c-0.0084-0.0582-0.0125-0.11777-0.0125-0.17871s0.0041-0.1207,0.0125-0.17891c0.01934-0.11914,0.05254-0.17891,0.09981-0.17891
			h1.39726c0.04707,0,0.0791,0.05977,0.0957,0.17891c0.01094,0.0582,0.0166,0.11797,0.0166,0.17891s-0.00566,0.12051-0.0166,0.17871
			c-0.0166,0.11934-0.04863,0.17891-0.0957,0.17891h-0.27871v1.48047h0.29121c0.04707,0,0.08027,0.05957,0.0998,0.17871
			c0.01094,0.0582,0.0166,0.11797,0.0166,0.17891c0,0.06094-0.00566,0.1207-0.0166,0.17891
			c-0.01953,0.11914-0.05273,0.17871-0.0998,0.17871h-1.40137c-0.04727,0-0.0791-0.05957-0.0957-0.17871
			c-0.01113-0.0582-0.0168-0.11797-0.0168-0.17891c0-0.06094,0.00566-0.1207,0.0168-0.17891
			c0.0166-0.11914,0.04844-0.17871,0.0957-0.17871H20.26519z"/>
		<path fill="#2D2378" d="M24.7689,8.62177c-0.24687,0-0.37031-0.02773-0.37031-0.0832l-0.08711-1.66758l-0.50742,1.68848
			c-0.01113,0.0332-0.10547,0.0498-0.28281,0.0498c-0.17754,0-0.26895-0.01523-0.27441-0.0457l-0.52402-1.70918l-0.0582,1.65918
			c-0.00274,0.0418-0.05547,0.07031-0.15801,0.08535c-0.10273,0.01543-0.18789,0.02285-0.25586,0.02285
			s-0.13379-0.0041-0.19746-0.0125c-0.1332-0.01914-0.19824-0.05391-0.19551-0.10391l0.0957-2.70312
			c0-0.06641,0.16895-0.09961,0.50723-0.09961c0.1,0,0.22187,0.00742,0.36602,0.02266
			c0.14414,0.01523,0.22461,0.04531,0.24121,0.08945l0.46582,1.30996l0.40742-1.31406
			c0.025-0.07207,0.21641-0.10801,0.57402-0.10801c0.10254,0,0.22519,0.00742,0.36797,0.02266
			c0.14277,0.01523,0.21426,0.04238,0.21426,0.08125l0.12051,2.72793c0,0.03066-0.0541,0.05273-0.16211,0.0666
			C24.94761,8.61493,24.8521,8.62177,24.7689,8.62177z"/>
		<path fill="#2D2378" d="M27.58413,8.62607c-0.24102,0-0.37148-0.03887-0.39082-0.11641l-0.1373-0.53672h-0.66113l-0.1207,0.51582
			c-0.0166,0.08594-0.14961,0.12891-0.39922,0.12891c-0.13301,0-0.23145-0.00762-0.29512-0.02285
			c-0.06387-0.01523-0.0957-0.02695-0.0957-0.03535l0.73594-2.81543c0-0.02227,0.19004-0.0332,0.56992-0.0332
			c0.37969,0,0.56953,0.01094,0.56953,0.0332l0.71953,2.81953c0,0.01953-0.06367,0.03477-0.19121,0.0457
			C27.76031,8.6204,27.65913,8.62607,27.58413,8.62607z M26.49878,7.44482h0.43672l-0.18711-0.86074h-0.025L26.49878,7.44482z"/>
		<path fill="#2D2378" d="M28.39507,8.37235V5.78564c0-0.0582,0.14062-0.08731,0.42207-0.08731s0.42207,0.0291,0.42207,0.08731
			v2.03769h0.64062c0.0498,0,0.08438,0.06523,0.10391,0.19551c0.0082,0.06387,0.0125,0.12891,0.0125,0.19551
			c0,0.06641-0.0043,0.13438-0.0125,0.20371c-0.02226,0.13301-0.0582,0.19961-0.1082,0.19961h-1.28086
			c-0.06094,0-0.10957-0.025-0.14551-0.0748C28.41304,8.49286,28.39507,8.43622,28.39507,8.37235z"/>
		<path fill="#2D2378" d="M30.43687,7.60302c0.05273,0.04141,0.14355,0.09844,0.27246,0.17031
			c0.12891,0.07227,0.25215,0.1082,0.37012,0.1082c0.11777,0,0.17676-0.0457,0.17676-0.13711
			c0-0.0418-0.0166-0.07832-0.0498-0.11016c-0.0334-0.03203-0.09434-0.06875-0.18301-0.11035
			c-0.08887-0.0416-0.15527-0.07402-0.1998-0.09766c-0.04414-0.02363-0.10312-0.0623-0.17656-0.1166
			c-0.07344-0.05391-0.12969-0.11016-0.16856-0.16836c-0.11074-0.15801-0.16621-0.35898-0.16621-0.60293
			s0.09063-0.4498,0.27227-0.61758c0.18164-0.16777,0.41933-0.25156,0.71328-0.25156c0.19961,0,0.38399,0.02148,0.55313,0.06445
			s0.25625,0.09902,0.26191,0.16855c0,0.0082,0,0.01641,0,0.0248c0,0.09707-0.03047,0.21973-0.0914,0.36816
			c-0.06113,0.14824-0.1041,0.23066-0.12891,0.24727c-0.17754-0.09141-0.33633-0.13711-0.47617-0.13711
			c-0.14004,0-0.20996,0.0498-0.20996,0.14961c0,0.06094,0.05117,0.11523,0.15371,0.16211
			c0.02227,0.01133,0.0541,0.02656,0.0957,0.0457c0.0416,0.01953,0.08945,0.04258,0.14355,0.06875
			c0.05391,0.02637,0.11211,0.05977,0.17461,0.0998c0.0623,0.04023,0.12949,0.09355,0.20156,0.16016
			c0.14707,0.13867,0.22051,0.32168,0.22051,0.54902c0,0.29648-0.08183,0.53906-0.24531,0.72773
			c-0.16367,0.18848-0.41582,0.28555-0.75684,0.29102c-0.16641,0-0.3168-0.01406-0.45117-0.0416
			c-0.13457-0.02754-0.25176-0.08184-0.35156-0.1623c-0.09981-0.08027-0.14961-0.17734-0.14961-0.29102
			c0-0.11367,0.0207-0.22656,0.06231-0.33887S30.3898,7.63896,30.43687,7.60302z"/>
	</g>
	<g>
		<path fill="#2D2378" d="M9.39009,4.30702V2.82655H9.09488c-0.04727,0-0.08047-0.05967-0.0998-0.17891
			c-0.0084-0.0582-0.0125-0.11777-0.0125-0.17881c0-0.06094,0.0041-0.12061,0.0125-0.17881
			c0.01934-0.11914,0.05254-0.17881,0.0998-0.17881h1.39727c0.04707,0,0.07891,0.05967,0.0956,0.17881
			c0.01104,0.0582,0.0167,0.11787,0.0167,0.17881c0,0.06104-0.00566,0.12061-0.0167,0.17881
			c-0.0167,0.11924-0.04853,0.17891-0.0956,0.17891h-0.27871v1.48047h0.29121c0.04707,0,0.08027,0.05957,0.0998,0.17881
			c0.01094,0.0582,0.0166,0.11787,0.0166,0.17881c0,0.06104-0.00566,0.12061-0.0166,0.17881
			c-0.01953,0.11924-0.05273,0.17871-0.0998,0.17871H9.10308c-0.04707,0-0.07891-0.05947-0.0956-0.17871
			c-0.01113-0.0582-0.0167-0.11777-0.0167-0.17881c0-0.06094,0.00557-0.12061,0.0167-0.17881
			c0.0167-0.11924,0.04853-0.17881,0.0956-0.17881H9.39009z"/>
		<path fill="#2D2378" d="M13.49038,4.93075c0,0.0582-0.13037,0.08731-0.39092,0.08731c-0.26064,0-0.40205-0.0209-0.42412-0.0623
			l-0.69453-1.29756v1.29336c0,0.0499-0.12832,0.0749-0.38477,0.0749c-0.25644,0-0.38457-0.025-0.38457-0.0749V2.16942
			c0-0.0416,0.10947-0.0623,0.32852-0.0623c0.08594,0,0.18643,0.00762,0.30147,0.02285
			c0.11504,0.01523,0.18506,0.04365,0.21006,0.08525l0.66533,1.28086V2.19023c0-0.05264,0.129-0.079,0.38682-0.079
			s0.38672,0.02637,0.38672,0.079V4.93075z"/>
		<path fill="#2D2378" d="M15.31177,4.83095V2.33583c0-0.06934,0.01729-0.12412,0.05205-0.16426
			c0.03457-0.04023,0.07969-0.06035,0.13516-0.06035h0.69443c0.44082,0,0.77559,0.11094,1.0043,0.33272
			c0.22871,0.22178,0.34307,0.57119,0.34307,1.04795c0,1.02031-0.43525,1.53027-1.30576,1.53027h-0.71113
			C15.38247,5.02216,15.31177,4.95849,15.31177,4.83095z M16.1103,2.90136v1.24346c0,0.0582,0.0041,0.09502,0.0124,0.11016
			c0.0083,0.01533,0.0333,0.02285,0.0749,0.02285c0.15234,0,0.26816-0.05674,0.34727-0.17051
			c0.07891-0.11357,0.11846-0.30283,0.11846-0.56758s-0.04092-0.4373-0.12266-0.51777
			c-0.08184-0.08037-0.21143-0.12061-0.38887-0.12061H16.1103z"/>
		<path fill="#2D2378" d="M19.53687,3.26737c0.05273,0,0.0791,0.09707,0.0791,0.29102c0,0.0583-0.00625,0.12686-0.01875,0.20586
			c-0.0125,0.079-0.03535,0.11855-0.06856,0.11855h-0.52812v0.41582h0.76504c0.04707,0,0.0791,0.06104,0.0957,0.18301
			c0.0084,0.05273,0.0125,0.10889,0.0125,0.16846c0,0.05967-0.0084,0.13652-0.025,0.23076
			c-0.0166,0.09443-0.04434,0.14131-0.0832,0.14131h-1.42207c-0.10547,0-0.1582-0.04297-0.1582-0.12881V2.21933
			c0-0.07207,0.03184-0.10811,0.0957-0.10811h1.48887c0.0582,0,0.08731,0.12266,0.08731,0.36807
			c0,0.24531-0.0291,0.36807-0.08731,0.36807h-0.76933v0.42002H19.53687z"/>
		<path fill="#2D2378" d="M22.18589,2.11122c0.04707,0,0.0707,0.12266,0.0707,0.36807c0,0.24531-0.02363,0.36807-0.0707,0.36807
			h-0.76094v0.47402h0.50723c0.04726,0,0.0707,0.10752,0.0707,0.32227c0,0.21494-0.02226,0.32236-0.06641,0.32236h-0.51152v1.00225
			c0,0.03867-0.05215,0.06445-0.15606,0.07695s-0.19062,0.01875-0.25977,0.01875l-0.19551-0.0084
			c-0.13594-0.0166-0.20371-0.04434-0.20371-0.0832V2.21933c0-0.04424,0.00879-0.07344,0.02695-0.0873
			c0.01797-0.01387,0.04492-0.0208,0.08105-0.0208H22.18589z"/>
		<path fill="#2D2378" d="M24.25679,3.26737c0.05273,0,0.0791,0.09707,0.0791,0.29102c0,0.0583-0.00625,0.12686-0.01875,0.20586
			c-0.0125,0.079-0.03535,0.11855-0.06855,0.11855h-0.52813v0.41582h0.76504c0.04707,0,0.0791,0.06104,0.0957,0.18301
			c0.0084,0.05273,0.0125,0.10889,0.0125,0.16846c0,0.05967-0.0084,0.13652-0.025,0.23076
			c-0.0166,0.09443-0.04434,0.14131-0.0832,0.14131h-1.42207c-0.10547,0-0.1582-0.04297-0.1582-0.12881V2.21933
			c0-0.07207,0.03184-0.10811,0.0957-0.10811h1.48887c0.0582,0,0.0873,0.12266,0.0873,0.36807
			c0,0.24531-0.0291,0.36807-0.0873,0.36807h-0.76934v0.42002H24.25679z"/>
		<path fill="#2D2378" d="M27.46304,4.93075c0,0.0582-0.13027,0.08731-0.39082,0.08731c-0.26074,0-0.40215-0.0209-0.42422-0.0623
			l-0.69434-1.29756v1.29336c0,0.0499-0.12832,0.0749-0.38477,0.0749c-0.25645,0-0.38477-0.025-0.38477-0.0749V2.16942
			c0-0.0416,0.10957-0.0623,0.32851-0.0623c0.08594,0,0.18652,0.00762,0.30156,0.02285
			c0.11504,0.01523,0.18516,0.04365,0.20996,0.08525l0.66543,1.28086V2.19023c0-0.05264,0.12891-0.079,0.38672-0.079
			s0.38672,0.02637,0.38672,0.079V4.93075z"/>
		<path fill="#2D2378" d="M28.21577,4.00751c0.05273,0.0416,0.14355,0.09854,0.27246,0.17051
			c0.12891,0.07217,0.25215,0.1082,0.37012,0.1082c0.11777,0,0.17676-0.0458,0.17676-0.1373c0-0.0416-0.0166-0.07822-0.05-0.11016
			c-0.0332-0.03184-0.09434-0.06865-0.18301-0.11025c-0.08867-0.0415-0.15527-0.07412-0.19961-0.09766
			c-0.04433-0.02354-0.10312-0.0624-0.17656-0.1165c-0.07363-0.054-0.12969-0.11016-0.16855-0.16836
			c-0.11094-0.15811-0.16621-0.35908-0.16621-0.60303s0.09063-0.4498,0.27227-0.61758
			c0.18164-0.16768,0.41934-0.25156,0.71328-0.25156c0.19961,0,0.38398,0.02148,0.55312,0.06445
			c0.16895,0.04297,0.25625,0.09912,0.26192,0.16846c0,0.0083,0,0.0166,0,0.0249c0,0.09707-0.03066,0.21973-0.0916,0.36807
			s-0.10391,0.23076-0.12891,0.24746c-0.17734-0.0915-0.33613-0.1373-0.47617-0.1373c-0.13984,0-0.20996,0.0499-0.20996,0.14971
			c0,0.06104,0.05137,0.11514,0.15391,0.16221c0.02207,0.01113,0.0541,0.02637,0.0957,0.0457
			c0.0416,0.01943,0.08926,0.04238,0.14336,0.06865c0.0541,0.02637,0.1123,0.05967,0.1748,0.0998
			c0.0623,0.04023,0.12949,0.09355,0.20156,0.16016c0.14687,0.13867,0.22051,0.32158,0.22051,0.54893
			c0,0.29668-0.08183,0.53926-0.24551,0.72773c-0.16348,0.18857-0.41582,0.28555-0.75684,0.29121
			c-0.16621,0-0.3166-0.01406-0.45117-0.0418c-0.13457-0.02754-0.25156-0.08164-0.35137-0.16211
			c-0.09981-0.08037-0.14961-0.17734-0.14961-0.29111c0-0.11357,0.0207-0.22666,0.06231-0.33887
			C28.12437,4.11776,28.1687,4.04364,28.21577,4.00751z"/>
		<path fill="#2D2378" d="M31.81304,3.26737c0.05254,0,0.07891,0.09707,0.07891,0.29102c0,0.0583-0.00625,0.12686-0.01875,0.20586
			c-0.0125,0.079-0.03535,0.11855-0.06856,0.11855h-0.52812v0.41582h0.76504c0.04727,0,0.0791,0.06104,0.0957,0.18301
			c0.0084,0.05273,0.0125,0.10889,0.0125,0.16846c0,0.05967-0.0082,0.13652-0.025,0.23076
			c-0.0166,0.09443-0.04433,0.14131-0.0832,0.14131h-1.42207c-0.10547,0-0.15801-0.04297-0.15801-0.12881V2.21933
			c0-0.07207,0.03164-0.10811,0.09551-0.10811h1.48887c0.0582,0,0.0873,0.12266,0.0873,0.36807
			c0,0.24531-0.0291,0.36807-0.0873,0.36807h-0.76934v0.42002H31.81304z"/>
	</g>
</g>
</svg>
