<svg width="101" height="101" viewBox="0 0 101 101" fill="none" xmlns="http://www.w3.org/2000/svg">
<path fill-rule="evenodd" clip-rule="evenodd" d="M39.5 79C61.3152 79 79 61.3152 79 39.5C79 17.6848 61.3152 0 39.5 0C17.6848 0 0 17.6848 0 39.5C0 61.3152 17.6848 79 39.5 79ZM39.5 68C55.2401 68 68 55.2402 68 39.5C68 23.7598 55.2401 11 39.5 11C23.7599 11 11 23.7598 11 39.5C11 55.2402 23.7599 68 39.5 68Z" fill="white"/>
<path d="M71.5 61.5L61 72C61 72 80.5 93.2647 88 99C95.5 104.735 103.5 93.5 99 87.5C94.5 81.5 71.5 61.5 71.5 61.5Z" fill="white"/>
</svg>
